# xmcd CD database file
#
# Track frame offsets:
#	183
#	9258
#	18745
#	27575
#	37583
#	44983
#	54233
#	62433
#	70758
#	78708
#	87033
#	94458
#	101733
#	109083
#	119508
#	125583
#	131508
#	137583
#	146695
#	154533
#	164095
#	168033
#	176958
#	185658
#	196458
#	204183
#	214083
#	222333
#	229833
#	238233
#	249558
#	258183
#	269208
#	277908
#	287283
#	294933
#	303333
#	312858
#	320958
#	324108
#	332808
#	336108
#
# Disc length: 4609 seconds
#
# Revision: 5
# Processed by: cddbd v1.5.2PL0 Copyright (c) Steve Scherf et al.
# Submitted via: CDex 1.51
#
DISCID=7611ff2a
DTITLE=Wolfgang Amadeus Mozart - Tänze - Märsche -- Willi Boskovsky CD01
DYEAR=1900
DGENRE=Classical
TTITLE0=7 Minuets KV 61b - 1. G Major
TTITLE1=7 Minuets KV 61b - 2. D Major
TTITLE2=7 Minuets KV 61b - 3. A Major
TTITLE3=7 Minuets KV 61b - 4. F Major
TTITLE4=7 Minuets KV 61b - 5. C Major
TTITLE5=7 Minuets KV 61b - 6. G Major
TTITLE6=7 Minuets KV 61b - 7. D Major
TTITLE7=6 Minuets KV 105-61f - 1. D Major - from Michael Haydn
TTITLE8=6 Minuets KV 105-61f - 2. D Major - from Michael Haydn
TTITLE9=6 Minuets KV 105-61f - 3. D Major
TTITLE10=6 Minuets KV 105-61f - 4. G Major
TTITLE11=6 Minuets KV 105-61f - 5. G Major
TTITLE12=6 Minuets KV 105-61f - 6. G Major
TTITLE13=Minuet in C, KV 61g - No. 2
TTITLE14=Minuet in D, KV 94-73h -
TTITLE15=Contredanse in B Flat, KV 123-73g -
TTITLE16=Minuet in E Flat, KV 122-73t -
TTITLE17=6 Minuets KV 104-61e - 1. C Major
TTITLE18=6 Minuets KV 104-61e - 2. F Major
TTITLE19=6 Minuets KV 104-61e - 3. C Major
TTITLE20=6 Minuets KV 104-61e - 4. A Major
TTITLE21=6 Minuets KV 104-61e - 5. G Major
TTITLE22=6 Minuets KV 104-61e - 6. G Major
TTITLE23=19 Minuets KV 103-61d - 1. C Major
TTITLE24=19 Minuets KV 103-61d - 2. G Major
TTITLE25=19 Minuets KV 103-61d - 3. D Major
TTITLE26=19 Minuets KV 103-61d - 4. F Major
TTITLE27=19 Minuets KV 103-61d - 5. C Major
TTITLE28=19 Minuets KV 103-61d - 6. G Major
TTITLE29=19 Minuets KV 103-61d - 7. D Major
TTITLE30=19 Minuets KV 103-61d - 8. F Major
TTITLE31=19 Minuets KV 103-61d - 9. D Major
TTITLE32=19 Minuets KV 103-61d - 10. G Major
TTITLE33=19 Minuets KV 103-61d - 11. F Major
TTITLE34=19 Minuets KV 103-61d - 12. C Major
TTITLE35=19 Minuets KV 103-61d - 13. C Major
TTITLE36=19 Minuets KV 103-61d - 14. E Flat Major
TTITLE37=19 Minuets KV 103-61d - 15. B Flat Major
TTITLE38=19 Minuets KV 103-61d - 16. G. Major
TTITLE39=19 Minuets KV 103-61d - 17. E Major
TTITLE40=19 Minuets KV 103-61d - 18. A Major
TTITLE41=19 Minuets KV 103-61d - 19. C Major
EXTD=
EXTT0=
EXTT1=
EXTT2=
EXTT3=
EXTT4=
EXTT5=
EXTT6=
EXTT7=
EXTT8=
EXTT9=
EXTT10=
EXTT11=
EXTT12=
EXTT13=
EXTT14=
EXTT15=
EXTT16=
EXTT17=
EXTT18=
EXTT19=
EXTT20=
EXTT21=
EXTT22=
EXTT23=
EXTT24=
EXTT25=
EXTT26=
EXTT27=
EXTT28=
EXTT29=
EXTT30=
EXTT31=
EXTT32=
EXTT33=
EXTT34=
EXTT35=
EXTT36=
EXTT37=
EXTT38=
EXTT39=
EXTT40=
EXTT41=
PLAYORDER=
